<svg xmlns="http://www.w3.org/2000/svg" viewBox="0 0 24 24" fill="none" class="css-nxrtt5"><path fill-rule="evenodd" clip-rule="evenodd" d="M11.085 1.086l4.5 4.5 1.294-1.292 1.414 1.414L17 7l4.5 4.5-6.915 6.915-4.5-4.5-7.17 7.17L1.5 19.672l7.17-7.17-1.292-1.294-3.207-3.207 6.914-6.915zM16.172 9l-2.585-2.586-4.087 4.087 2.586 2.586L16.17 9zM13.5 14.501l1.086 1.086 4.086-4.086-1.086-1.086L13.5 14.5zM8.085 9.087L12.171 5l-1.085-1.086-4.087 4.087 1.086 1.086zM8 20h13v2H8v-2z" fill="currentColor"></path></svg>