<svg aria-name="nft" xmlns="http://www.w3.org/2000/svg" style="position: absolute; width: 0px; height: 0px; overflow: hidden;" aria-hidden="true"><symbol viewBox="0 0 21 20" id="account-f"><path fill-rule="evenodd" clip-rule="evenodd" d="M14.25 7.75C14.25 9.82107 12.5711 11.5 10.5 11.5C8.42893 11.5 6.75 9.82107 6.75 7.75C6.75 5.67893 8.42893 4 10.5 4C12.5711 4 14.25 5.67893 14.25 7.75ZM12.25 7.75C12.25 8.7165 11.4665 9.5 10.5 9.5C9.5335 9.5 8.75 8.7165 8.75 7.75C8.75 6.7835 9.5335 6 10.5 6C11.4665 6 12.25 6.7835 12.25 7.75Z" fill="#76808F"></path><path fill-rule="evenodd" clip-rule="evenodd" d="M20.5 10C20.5 4.47715 16.0228 0 10.5 0C4.97715 0 0.5 4.47715 0.5 10C0.5 15.5228 4.97715 20 10.5 20C16.0228 20 20.5 15.5228 20.5 10ZM18.5 10C18.5 5.58172 14.9183 2 10.5 2C6.08172 2 2.5 5.58172 2.5 10C2.5 11.9218 3.17761 13.6852 4.30695 15.0646C4.85498 13.8474 6.07853 13 7.5 13H13.5C14.9215 13 16.145 13.8474 16.6931 15.0646C17.8224 13.6852 18.5 11.9218 18.5 10ZM15 16.6153V16.5C15 15.6716 14.3284 15 13.5 15H7.5C6.67157 15 6 15.6716 6 16.5V16.6153C7.28211 17.4892 8.8314 18 10.5 18C12.1686 18 13.7179 17.4892 15 16.6153Z" fill="#76808F"></path></symbol><symbol viewBox="0 0 24 24" id="circled-plus-f"><path fill-rule="evenodd" clip-rule="evenodd" d="M21 12C21 16.9706 16.9706 21 12 21C7.02944 21 3 16.9706 3 12C3 7.02944 7.02944 3 12 3C16.9706 3 21 7.02944 21 12ZM10.75 13.25V18H13.25V13.25H18V10.75H13.25V6H10.75V10.75H6V13.25H10.75Z" fill="#707A8A"></path></symbol><symbol id="earn-s24" viewBox="0 0 24 24"><path fill-rule="evenodd" clip-rule="evenodd" d="M12.852 16.96v1.435h-1.705V17.02c-1.51-.134-2.513-.748-3.261-1.57l1.346-1.227c.569.598 1.272 1.002 2.11 1.122V12.65c-2.245-.464-3.157-1.451-3.157-2.902 0-1.571 1.032-2.618 2.962-2.843V5.5h1.705v1.406c1.197.135 2.08.599 2.738 1.347L14.23 9.479c-.36-.404-.838-.733-1.556-.897v2.483c2.094.479 3.097 1.332 3.097 2.857 0 1.467-.928 2.708-2.918 3.037zm-1.51-8.408c-.764.15-1.093.553-1.093 1.137 0 .568.33.867 1.092 1.077V8.552zm1.33 6.762c.704-.195 1.033-.659 1.033-1.227 0-.434-.18-.883-1.032-1.137v2.364z" fill="#76808F"></path><path fill-rule="evenodd" clip-rule="evenodd" d="M22 12c0-5.523-4.477-10-10-10S2 6.477 2 12s4.477 10 10 10 10-4.477 10-10zm-2 0a8 8 0 10-16 0 8 8 0 0016 0z" fill="#76808F"></path></symbol><symbol viewBox="0 0 24 24" id="help-f"><path fill-rule="evenodd" clip-rule="evenodd" d="M6.5 3H19V21H6.5V18.5H4V16H6.5V13.25H4V10.75H6.5V8H4V5.5H6.5V3ZM12.75 7.75C12.0596 7.75 11.5 8.30964 11.5 9V9.5H9V9C9 6.92893 10.6789 5.25 12.75 5.25C14.8211 5.25 16.5 6.92893 16.5 9C16.5 10.0352 16.0789 10.9744 15.4017 11.6517L14 13.0533V14.5H11.5V12.0178L13.6339 9.88388C13.8615 9.65631 14 9.34552 14 9C14 8.30964 13.4404 7.75 12.75 7.75ZM11.5 19V16.5H14V19H11.5Z" fill="#707A8A"></path></symbol><symbol viewBox="0 0 165 24" id="icon-logo-dark"> <path d="M136.792 14.3918L129.809 5.37927H127.686V18.414H129.939V9.14072L137.127 18.414H139.045V5.37927H136.792V14.3918Z" fill="#1E2026"></path> <path d="M152.099 5.37927H142.397V18.414H144.688V13.107H151.261V11.0214H144.688V7.46483H152.099V5.37927Z" fill="#1E2026"></path> <path d="M160.129 7.50207H164.263V5.37927H153.686V7.50207H157.82V18.414H160.129V7.50207Z" fill="#1E2026"></path> <path d="M5.41406 12L2.71875 14.6953L0 12L2.71875 9.28125L5.41406 12ZM12 5.41406L16.6406 10.0547L19.3594 7.33594L12 0L4.64062 7.35938L7.35938 10.0781L12 5.41406ZM21.2812 9.28125L18.5859 12L21.3047 14.7188L24.0234 12L21.2812 9.28125ZM12 18.5859L7.35938 13.9219L4.64062 16.6406L12 24L19.3594 16.6406L16.6406 13.9219L12 18.5859ZM12 14.6953L14.7188 11.9766L12 9.28125L9.28125 12L12 14.6953ZM40.5938 14.9766V14.9297C40.5938 13.1719 39.6562 12.2812 38.1328 11.6953C39.0703 11.1797 39.8672 10.3359 39.8672 8.85938V8.8125C39.8672 6.75 38.2031 5.41406 35.5312 5.41406H29.4141V18.5625H35.6719C38.6484 18.5859 40.5938 17.3672 40.5938 14.9766ZM36.9844 9.35156C36.9844 10.3359 36.1875 10.7344 34.8984 10.7344H32.2266V7.94531H35.0859C36.3047 7.94531 36.9844 8.4375 36.9844 9.30469V9.35156ZM37.7109 14.6016C37.7109 15.5859 36.9375 16.0312 35.6719 16.0312H32.2266V13.1484H35.5781C37.0547 13.1484 37.7109 13.6875 37.7109 14.5781V14.6016ZM46.6641 18.5859V5.41406H43.7578V18.5625H46.6641V18.5859ZM62.2266 18.5859V5.41406H59.3672V13.5234L53.2031 5.41406H50.5312V18.5625H53.3906V10.2188L59.7656 18.5859H62.2266ZM78.2578 18.5859L72.6094 5.34375H69.9375L64.2891 18.5859H67.2656L68.4609 15.6328H74.0156L75.2109 18.5859H78.2578ZM72.9844 13.0781H69.4922L71.25 8.8125L72.9844 13.0781ZM92.0625 18.5859V5.41406H89.2031V13.5234L83.0391 5.41406H80.3672V18.5625H83.2266V10.2188L89.6016 18.5859H92.0625ZM106.992 16.4531L105.141 14.6016C104.109 15.5391 103.195 16.1484 101.672 16.1484C99.4219 16.1484 97.8516 14.2734 97.8516 12.0234V11.9531C97.8516 9.70312 99.4453 7.85156 101.672 7.85156C102.984 7.85156 104.016 8.41406 105.047 9.32812L106.898 7.19531C105.68 6 104.203 5.15625 101.719 5.15625C97.6875 5.15625 94.8516 8.22656 94.8516 11.9531V12C94.8516 15.7734 97.7344 18.7734 101.602 18.7734C104.133 18.7969 105.633 17.9062 106.992 16.4531ZM119.344 18.5859V16.0078H112.195V13.2422H118.406V10.6641H112.195V7.99219H119.25V5.41406H109.336V18.5625H119.344V18.5859Z" fill="#F0B90B"></path></symbol><symbol viewBox="0 0 165 24" id="icon-logo-light"> <path d="M136.792 14.3918L129.809 5.37927H127.686V18.414H129.939V9.14072L137.127 18.414H139.045V5.37927H136.792V14.3918Z" fill="white"></path> <path d="M152.099 5.37927H142.397V18.414H144.688V13.107H151.261V11.0214H144.688V7.46483H152.099V5.37927Z" fill="white"></path> <path d="M160.129 7.50207H164.263V5.37927H153.686V7.50207H157.82V18.414H160.129V7.50207Z" fill="white"></path> <path d="M5.41406 12L2.71875 14.6953L0 12L2.71875 9.28125L5.41406 12ZM12 5.41406L16.6406 10.0547L19.3594 7.33594L12 0L4.64062 7.35938L7.35938 10.0781L12 5.41406ZM21.2812 9.28125L18.5859 12L21.3047 14.7188L24.0234 12L21.2812 9.28125ZM12 18.5859L7.35938 13.9219L4.64062 16.6406L12 24L19.3594 16.6406L16.6406 13.9219L12 18.5859ZM12 14.6953L14.7188 11.9766L12 9.28125L9.28125 12L12 14.6953ZM40.5938 14.9766V14.9297C40.5938 13.1719 39.6562 12.2812 38.1328 11.6953C39.0703 11.1797 39.8672 10.3359 39.8672 8.85938V8.8125C39.8672 6.75 38.2031 5.41406 35.5312 5.41406H29.4141V18.5625H35.6719C38.6484 18.5859 40.5938 17.3672 40.5938 14.9766ZM36.9844 9.35156C36.9844 10.3359 36.1875 10.7344 34.8984 10.7344H32.2266V7.94531H35.0859C36.3047 7.94531 36.9844 8.4375 36.9844 9.30469V9.35156ZM37.7109 14.6016C37.7109 15.5859 36.9375 16.0312 35.6719 16.0312H32.2266V13.1484H35.5781C37.0547 13.1484 37.7109 13.6875 37.7109 14.5781V14.6016ZM46.6641 18.5859V5.41406H43.7578V18.5625H46.6641V18.5859ZM62.2266 18.5859V5.41406H59.3672V13.5234L53.2031 5.41406H50.5312V18.5625H53.3906V10.2188L59.7656 18.5859H62.2266ZM78.2578 18.5859L72.6094 5.34375H69.9375L64.2891 18.5859H67.2656L68.4609 15.6328H74.0156L75.2109 18.5859H78.2578ZM72.9844 13.0781H69.4922L71.25 8.8125L72.9844 13.0781ZM92.0625 18.5859V5.41406H89.2031V13.5234L83.0391 5.41406H80.3672V18.5625H83.2266V10.2188L89.6016 18.5859H92.0625ZM106.992 16.4531L105.141 14.6016C104.109 15.5391 103.195 16.1484 101.672 16.1484C99.4219 16.1484 97.8516 14.2734 97.8516 12.0234V11.9531C97.8516 9.70312 99.4453 7.85156 101.672 7.85156C102.984 7.85156 104.016 8.41406 105.047 9.32812L106.898 7.19531C105.68 6 104.203 5.15625 101.719 5.15625C97.6875 5.15625 94.8516 8.22656 94.8516 11.9531V12C94.8516 15.7734 97.7344 18.7734 101.602 18.7734C104.133 18.7969 105.633 17.9062 106.992 16.4531ZM119.344 18.5859V16.0078H112.195V13.2422H118.406V10.6641H112.195V7.99219H119.25V5.41406H109.336V18.5625H119.344V18.5859Z" fill="#F0B90B"></path></symbol><symbol viewBox="0 0 24 24" id="launchpad-f"><path fill-rule="evenodd" clip-rule="evenodd" d="M20.0101 3.99117L13.5959 3.99117L9.40826 8.1788L4.46459 8.23405L1.64358 11.055L6.23402 15.6459L9.76202 12.1179L11.8833 14.2392L8.35524 17.7673L12.9485 22.361L15.7695 19.54L15.8225 14.593L20.0101 10.4054L20.0101 3.99117ZM8.34698 17.7756L6.22566 15.6543L4.10639 17.7736L6.22771 19.8949L8.34698 17.7756Z" fill="#707A8A"></path></symbol><symbol viewBox="0 0 24 25" id="limit-f"><path fill-rule="evenodd" clip-rule="evenodd" d="M6.59277 3.54736H9.59277V5.54736H14.5928V3.54736H17.5928V5.54736H21V14.5474H17.5928V18.5474H21V21.5474H3V18.5474H6.59277V14.5474H3V5.54736H6.59277V3.54736ZM14.5928 14.5474V18.5474H9.59277V14.5474H14.5928ZM12.8284 7.54736L7.82843 12.5474H5L10 7.54736H12.8284ZM18.9998 7.54736L13.9998 12.5474H11.1714L16.1714 7.54736H18.9998Z" fill="#707A8A"></path></symbol><symbol viewBox="0 0 24 24" id="marketplace-f"><path fill-rule="evenodd" clip-rule="evenodd" d="M17.5 9C16.4859 9 15.5725 8.5071 14.9333 7.7195C14.2028 8.5071 13.159 9 12 9C10.841 9 9.7972 8.5071 9.06667 7.7195C8.42745 8.5071 7.51409 9 6.5 9C4.567 9 3 7.20914 3 5V4H21V5C21 7.20914 19.433 9 17.5 9ZM17.5 11.1357C18.4793 11.1357 19.3647 10.7282 20 10.0715V19.9991H14V20H10V19.9991H4V10.0715C4.63526 10.7282 5.52066 11.1357 6.5 11.1357C7.51413 11.1357 8.42752 10.6988 9.06674 10.0006C9.79727 10.6987 10.8411 11.1356 12 11.1356C13.1589 11.1356 14.2027 10.6987 14.9333 10.0006C15.5725 10.6988 16.4859 11.1357 17.5 11.1357ZM16 18H14V15H10V18H8V13H16V18Z" fill="#707A8A"></path></symbol><symbol viewBox="0 0 24 24" id="mystery-box-f"><path fill-rule="evenodd" clip-rule="evenodd" d="M13.7678 3.76777L12 2L10.2322 3.76777L12 5.53553L13.7678 3.76777ZM8.5 5H6V7.5H8.5V5ZM16 5H18.5V7.5H16V5ZM4.99174 12.4926L4.99061 12.4937L1.45508 8.95816H8.52512L8.52626 8.95703L11 11.4308V14H5V12.4926H4.99174ZM13 14V11.4379L15.473 8.96484L15.4742 8.96598H22.5442L19.0087 12.5015L19.0075 12.5004H19V14H13ZM13 20V16H19V20H13ZM11 16V20H5V16H11Z" fill="#707A8A"></path></symbol><symbol viewBox="0 0 24 25" id="notifications-f"><path fill-rule="evenodd" clip-rule="evenodd" d="M12 3.54736C8.13401 3.54736 5 6.68137 5 10.5474L5 13.5474L4 14.5474V16.5474H5H19H20L20 14.5474L19 13.5474V10.5474C19 6.68137 15.866 3.54736 12 3.54736ZM12 21.5474C9.94965 21.5474 8.18757 20.3133 7.41602 18.5474H16.5839C15.8124 20.3133 14.0503 21.5474 12 21.5474Z" fill="#707A8A"></path></symbol><symbol viewBox="0 0 24 25" id="oracle-f"><path fill-rule="evenodd" clip-rule="evenodd" d="M4 9.8807L9.33333 4.54736H4V9.8807ZM14.6667 4.54736L20 9.8807V4.54736H14.6667ZM4 20.5474H9.33333L4 15.214V20.5474ZM20 20.5474V15.214L14.6667 20.5474H20ZM10.2222 14.3251V10.7696H13.7778V14.3251H10.2222ZM4 12.547L8 8.54698C10.2091 6.33784 13.7909 6.33784 16 8.54698L20 12.547L16 16.547C13.7909 18.7561 10.2091 18.7561 8 16.547L4 12.547ZM15.5556 12.5476C15.5556 10.5839 13.9637 8.99202 12 8.99202C10.0363 8.99202 8.44444 10.5839 8.44444 12.5476C8.44444 14.5113 10.0363 16.1031 12 16.1031C13.9637 16.1031 15.5556 14.5113 15.5556 12.5476Z" fill="#707A8A"></path></symbol><symbol viewBox="0 0 24 25" id="orders-f"><path fill-rule="evenodd" clip-rule="evenodd" d="M5 3.54736H19V21.5474L15.5 18.5474L12 21.5474L8.5 18.5474L5 21.5474V3.54736ZM8 7.54736H12V10.0474H8V7.54736ZM12 12.5474H8V15.0474H12V12.5474ZM14 7.54736H16.5V10.0474H14V7.54736ZM16.5 12.5474H14V15.0474H16.5V12.5474Z" fill="#707A8A"></path></symbol><symbol viewBox="0 0 20 20" id="payment-f"><path fill-rule="evenodd" clip-rule="evenodd" d="M10.8525 14.9594V16.3955H9.14702V15.0192C7.63606 14.8846 6.63374 14.2712 5.88574 13.4484L7.23214 12.2217C7.80062 12.8201 8.50374 13.224 9.3415 13.3437V10.6509C7.0975 10.1871 6.18494 9.19976 6.18494 7.74864C6.18494 6.17784 7.21718 5.13064 9.14702 4.90624V3.5H10.8525V4.90624C12.0493 5.04088 12.9319 5.50464 13.5901 6.25264L12.2288 7.47936C11.8697 7.07544 11.391 6.74632 10.6729 6.58176V9.06512C12.7673 9.54384 13.7697 10.3966 13.7697 11.9225C13.7697 13.3886 12.8421 14.6302 10.8525 14.9594ZM9.3415 6.55184C8.57854 6.70144 8.24942 7.10536 8.24942 7.6888C8.24942 8.25728 8.57854 8.55648 9.3415 8.76592V6.55184ZM10.6729 13.3138C11.3761 13.1193 11.7052 12.6555 11.7052 12.087C11.7052 11.6532 11.5257 11.2044 10.6729 10.9501V13.3138Z" fill="#707A8A"></path><path fill-rule="evenodd" clip-rule="evenodd" d="M20 10C20 4.47715 15.5228 0 10 0C4.47715 0 0 4.47715 0 10C0 15.5228 4.47715 20 10 20C15.5228 20 20 15.5228 20 10ZM18 10C18 5.58172 14.4183 2 10 2C5.58172 2 2 5.58172 2 10C2 14.4183 5.58172 18 10 18C14.4183 18 18 14.4183 18 10Z" fill="#707A8A"></path></symbol><symbol viewBox="0 0 18 18" id="plus-f"><path d="M8 8V0H10V8H18V10H10V18H8V10H0V8H8Z" fill="#76808F"></path></symbol><symbol viewBox="0 0 24 24" id="telegram-f"><path d="M12 2C6.47761 2 2 6.47761 2 11.9893C2 17.5117 6.47761 22 12 22C17.5224 22 22 17.5117 22 11.9893C22 6.47761 17.5224 2 12 2ZM16.9254 8.27932C16.8614 9.20682 15.145 16.1365 15.145 16.1365C15.145 16.1365 15.0384 16.5416 14.6652 16.5522C14.5373 16.5522 14.3667 16.5416 14.1748 16.3603C13.7804 16.0299 12.8849 15.3902 12.0426 14.8038C12.0107 14.8358 11.9787 14.8678 11.936 14.8998C11.7441 15.0704 11.4563 15.3156 11.1471 15.6141C11.0299 15.7207 10.9019 15.838 10.774 15.9659L10.7633 15.9765C10.6887 16.0512 10.6247 16.1045 10.5714 16.1471C10.1557 16.4883 10.113 16.2004 10.113 16.0512L10.3369 13.6098V13.5885L10.3475 13.5672C10.3582 13.5352 10.3795 13.5245 10.3795 13.5245C10.3795 13.5245 14.7399 9.64392 14.8571 9.22815C14.8678 9.20682 14.8358 9.1855 14.7825 9.20682C14.4947 9.30277 9.47335 12.4797 8.91898 12.8316C8.88699 12.8529 8.79104 12.8422 8.79104 12.8422L6.34968 12.0426C6.34968 12.0426 6.06183 11.9254 6.15778 11.6588C6.1791 11.6055 6.21109 11.5522 6.32836 11.4776C6.87207 11.0938 16.3284 7.69296 16.3284 7.69296C16.3284 7.69296 16.5949 7.60768 16.7548 7.66098C16.8294 7.69296 16.8721 7.72495 16.9147 7.83156C16.9254 7.8742 16.936 7.95949 16.936 8.05544C16.936 8.10874 16.9254 8.17271 16.9254 8.27932Z" fill="#B7BDC6"></path></symbol><symbol viewBox="0 0 24 24" id="twitter-f"><path d="M8.28726 20.5C15.832 20.5 19.9621 13.965 19.9621 8.30213C19.9621 8.12092 19.9621 7.93971 19.9512 7.74717C20.7534 7.1469 21.4472 6.38807 22 5.52732C21.2629 5.86709 20.4715 6.0936 19.6369 6.20686C20.4824 5.67455 21.1328 4.83644 21.4472 3.82845C20.6558 4.32678 19.7778 4.67788 18.8347 4.87042C18.0867 4.02099 17.0244 3.5 15.8428 3.5C13.5772 3.5 11.7344 5.42538 11.7344 7.79247C11.7344 8.13225 11.7778 8.44937 11.8428 8.76649C8.43902 8.5966 5.41463 6.87508 3.38753 4.28148C3.02981 4.92705 2.83469 5.66322 2.83469 6.4447C2.83469 7.92838 3.56098 9.24217 4.65583 10.0123C3.98374 9.98967 3.35501 9.79714 2.80217 9.48001C2.80217 9.49134 2.80217 9.51399 2.80217 9.53664C2.80217 11.6093 4.22222 13.3534 6.08672 13.7385C5.73984 13.8404 5.38211 13.8857 5.00271 13.8857C4.74255 13.8857 4.48238 13.8631 4.23306 13.8065C4.75339 15.5167 6.271 16.7512 8.07046 16.7851C6.66125 17.9404 4.89431 18.6199 2.97561 18.6199C2.65041 18.6199 2.31436 18.6086 2 18.5633C3.8103 19.7865 5.96748 20.5 8.28726 20.5Z" fill="#B7BDC6"></path></symbol><symbol viewBox="0 0 24 25" id="user-f"><path fill-rule="evenodd" clip-rule="evenodd" d="M16 8.54736C16 10.7565 14.2091 12.5474 12 12.5474C9.79086 12.5474 8 10.7565 8 8.54736C8 6.33822 9.79086 4.54736 12 4.54736C14.2091 4.54736 16 6.33822 16 8.54736ZM8 14.5474C5.79086 14.5474 4 16.3382 4 18.5474V20.5474H20V18.5474C20 16.3382 18.2091 14.5474 16 14.5474H8Z" fill="#707A8A"></path></symbol></svg>