<svg xmlns="http://www.w3.org/2000/svg" viewBox="0 0 24 24" fill="none" class="css-nxrtt5"><path fill-rule="evenodd" clip-rule="evenodd" d="M21 2H6v11H2v6a3 3 0 003 3h13a3 3 0 003-3V2zM4 15h2v4a1 1 0 11-2 0v-4zm14 5H7.83c.11-.313.17-.65.17-1V4h11v15a1 1 0 01-1 1z" fill="currentColor"></path><path d="M14.36 18.5v-1.448c2.005-.332 2.94-1.583 2.94-3.061 0-1.539-1.01-2.398-3.122-2.88V8.606c.724.166 1.207.497 1.569.905l1.372-1.237c-.663-.754-1.553-1.222-2.76-1.357V5.5H12.64v1.418c-1.945.226-2.986 1.282-2.986 2.865 0 1.463.92 2.458 3.182 2.926v2.714c-.844-.12-1.553-.527-2.126-1.13l-1.357 1.236c.754.83 1.764 1.448 3.287 1.584V18.5h1.72zm-2.625-8.777c0-.588.332-.996 1.101-1.146v2.232c-.769-.212-1.1-.513-1.1-1.086zm3.484 4.434c0 .573-.332 1.04-1.04 1.236V13.01c.86.257 1.04.71 1.04 1.147z" fill="currentColor"></path></svg>